<svg width="24" height="24" viewBox="0 0 24 24" fill="none" xmlns="http://www.w3.org/2000/svg">
<path d="M21 15C21 15.5304 20.7893 16.0391 20.4142 16.4142C20.0391 16.7893 19.5304 17 19 17H7L3 21V5C3 4.46957 3.21071 3.96086 3.58579 3.58579C3.96086 3.21071 4.46957 3 5 3H19C19.5304 3 20.0391 3.21071 20.4142 3.58579C20.7893 3.96086 21 4.46957 21 5V15Z" stroke="white" stroke-width="1.5" stroke-linecap="round" stroke-linejoin="round"/>
<path d="M11.9999 10.6667C12.3681 10.6667 12.6666 10.3682 12.6666 10C12.6666 9.63185 12.3681 9.33337 11.9999 9.33337C11.6317 9.33337 11.3333 9.63185 11.3333 10C11.3333 10.3682 11.6317 10.6667 11.9999 10.6667Z" stroke="white" stroke-width="1.5" stroke-linecap="round" stroke-linejoin="round"/>
<path d="M16.6667 10.6667C17.0349 10.6667 17.3333 10.3682 17.3333 10C17.3333 9.63185 17.0349 9.33337 16.6667 9.33337C16.2985 9.33337 16 9.63185 16 10C16 10.3682 16.2985 10.6667 16.6667 10.6667Z" stroke="white" stroke-width="1.5" stroke-linecap="round" stroke-linejoin="round"/>
<path d="M7.33341 10.6667C7.7016 10.6667 8.00008 10.3682 8.00008 10C8.00008 9.63185 7.7016 9.33337 7.33341 9.33337C6.96522 9.33337 6.66675 9.63185 6.66675 10C6.66675 10.3682 6.96522 10.6667 7.33341 10.6667Z" stroke="white" stroke-width="1.5" stroke-linecap="round" stroke-linejoin="round"/>
</svg>
